<svg xmlns="http://www.w3.org/2000/svg" xmlns:xlink="http://www.w3.org/1999/xlink" width="1500" zoomAndPan="magnify" viewBox="0 0 1125 1124.99995" height="1500" preserveAspectRatio="xMidYMid meet" version="1.0"><defs><g/><clipPath id="7925ee4d58"><path d="M 0 0 L 1125 0 L 1125 1125 L 0 1125 Z M 0 0 " clip-rule="nonzero"/></clipPath><clipPath id="ab04b96866"><rect x="0" width="1125" y="0" height="1125"/></clipPath><clipPath id="806937ac96"><path d="M 0 0 L 1125 0 L 1125 1125 L 0 1125 Z M 0 0 " clip-rule="nonzero"/></clipPath><clipPath id="2e86375a0d"><rect x="0" width="1125" y="0" height="1125"/></clipPath><clipPath id="3d1ca5a868"><rect x="0" width="1041" y="0" height="386"/></clipPath><clipPath id="f7d6853361"><rect x="0" width="997" y="0" height="234"/></clipPath></defs><rect x="-112.5" width="1350" fill="#ffffff" y="-112.499995" height="1349.99994" fill-opacity="1"/><rect x="-112.5" width="1350" fill="#ffffff" y="-112.499995" height="1349.99994" fill-opacity="1"/><g transform="matrix(1, 0, 0, 1, 0, -0.000000000000114957)"><g clip-path="url(#ab04b96866)"><g clip-path="url(#7925ee4d58)"><rect x="-247.5" width="1620" fill="#a6a6b4" height="1619.999928" y="-247.499989" fill-opacity="1"/></g></g></g><g transform="matrix(1, 0, 0, 1, 0, -0.000000000000114957)"><g clip-path="url(#2e86375a0d)"><g clip-path="url(#806937ac96)"><rect x="-247.5" width="1620" fill="#000000" height="1619.999928" y="-247.499989" fill-opacity="1"/></g></g></g><g transform="matrix(1, 0, 0, 1, 49, 345)"><g clip-path="url(#3d1ca5a868)"><g fill="#ffffff" fill-opacity="1"><g transform="translate(1.012608, 276.95726)"><g><path d="M 18.484375 -254.09375 L 97.328125 -254.09375 C 121.140625 -254.09375 140.128906 -249.007812 154.296875 -238.84375 C 168.460938 -228.675781 175.546875 -212.195312 175.546875 -189.40625 C 175.546875 -163.945312 164.972656 -145.773438 143.828125 -134.890625 C 179.960938 -128.523438 198.03125 -107.175781 198.03125 -70.84375 C 198.03125 -49.488281 190.640625 -32.34375 175.859375 -19.40625 C 161.078125 -6.46875 140.75 0 114.875 0 L 18.484375 0 Z M 76.375 -154.609375 L 81 -154.609375 C 93.9375 -154.609375 103.585938 -156.863281 109.953125 -161.375 C 116.316406 -165.894531 119.5 -173.289062 119.5 -183.5625 C 119.5 -200.800781 106.664062 -209.421875 81 -209.421875 L 76.375 -209.421875 Z M 76.375 -44.65625 L 94.546875 -44.65625 C 122.878906 -44.65625 137.046875 -54.101562 137.046875 -73 C 137.046875 -84.289062 133.503906 -92.398438 126.421875 -97.328125 C 119.335938 -102.253906 108.710938 -104.71875 94.546875 -104.71875 L 76.375 -104.71875 Z M 76.375 -44.65625 "/></g></g></g><g fill="#ffffff" fill-opacity="1"><g transform="translate(220.28754, 276.95726)"><g><path d="M 153.6875 -52.359375 C 162.507812 -52.359375 171.078125 -53.691406 179.390625 -56.359375 C 187.710938 -59.023438 193.820312 -61.59375 197.71875 -64.0625 L 203.578125 -68.0625 L 228.21875 -18.78125 C 227.394531 -18.164062 226.265625 -17.34375 224.828125 -16.3125 C 223.390625 -15.289062 220.050781 -13.394531 214.8125 -10.625 C 209.582031 -7.851562 203.988281 -5.441406 198.03125 -3.390625 C 192.082031 -1.335938 184.28125 0.507812 174.625 2.15625 C 164.976562 3.800781 155.019531 4.625 144.75 4.625 C 121.132812 4.625 98.753906 -1.175781 77.609375 -12.78125 C 56.460938 -24.382812 39.421875 -40.347656 26.484375 -60.671875 C 13.546875 -80.992188 7.078125 -102.960938 7.078125 -126.578125 C 7.078125 -144.441406 10.875 -161.585938 18.46875 -178.015625 C 26.070312 -194.441406 36.1875 -208.503906 48.8125 -220.203125 C 61.4375 -231.910156 76.164062 -241.253906 93 -248.234375 C 109.84375 -255.210938 127.09375 -258.703125 144.75 -258.703125 C 161.175781 -258.703125 176.316406 -256.75 190.171875 -252.84375 C 204.035156 -248.945312 213.84375 -245.050781 219.59375 -241.15625 L 228.21875 -235.296875 L 203.578125 -186.015625 C 202.140625 -187.253906 199.984375 -188.742188 197.109375 -190.484375 C 194.234375 -192.234375 188.484375 -194.546875 179.859375 -197.421875 C 171.234375 -200.296875 162.507812 -201.734375 153.6875 -201.734375 C 139.71875 -201.734375 127.191406 -199.472656 116.109375 -194.953125 C 105.023438 -190.429688 96.25 -184.472656 89.78125 -177.078125 C 83.3125 -169.691406 78.378906 -161.738281 74.984375 -153.21875 C 71.597656 -144.695312 69.90625 -136.023438 69.90625 -127.203125 C 69.90625 -107.898438 77.144531 -90.597656 91.625 -75.296875 C 106.101562 -60.003906 126.789062 -52.359375 153.6875 -52.359375 Z M 153.6875 -52.359375 "/></g></g></g><g fill="#ffffff" fill-opacity="1"><g transform="translate(466.355772, 276.95726)"><g><path d="M 121.03125 -48.65625 L 73.921875 -48.65625 L 73.921875 -104.09375 L 18.484375 -104.09375 L 18.484375 -151.21875 L 73.921875 -151.21875 L 73.921875 -206.65625 L 121.03125 -206.65625 L 121.03125 -151.21875 L 176.46875 -151.21875 L 176.46875 -104.09375 L 121.03125 -104.09375 Z M 121.03125 -48.65625 "/></g></g></g><g fill="#ffffff" fill-opacity="1"><g transform="translate(675.467699, 276.95726)"><g><path d="M 147.53125 -254.09375 L 250.078125 0 L 187.875 0 L 169.078125 -50.8125 L 72.375 -50.8125 L 53.59375 0 L -8.625 0 L 93.9375 -254.09375 Z M 149.375 -101.640625 L 121.03125 -175.546875 L 120.421875 -175.546875 L 92.09375 -101.640625 Z M 149.375 -101.640625 "/></g></g></g><g fill="#ffffff" fill-opacity="1"><g transform="translate(931.082953, 276.95726)"><g><path d="M 76.375 -254.09375 L 76.375 0 L 18.484375 0 L 18.484375 -254.09375 Z M 76.375 -254.09375 "/></g></g></g></g></g><g transform="matrix(1, 0, 0, 1, 63, 611)"><g clip-path="url(#f7d6853361)"><g fill="#ffffff" fill-opacity="1"><g transform="translate(0.209785, 167.669964)"><g><path d="M 107.703125 -43.15625 L 38.5 -43.15625 C 38.5 -36.457031 40.671875 -31.492188 45.015625 -28.265625 C 49.359375 -25.046875 54.070312 -23.4375 59.15625 -23.4375 C 64.488281 -23.4375 68.703125 -24.148438 71.796875 -25.578125 C 74.898438 -27.003906 78.4375 -29.828125 82.40625 -34.046875 L 106.21875 -22.140625 C 96.289062 -5.515625 79.796875 2.796875 56.734375 2.796875 C 42.347656 2.796875 30.007812 -2.128906 19.71875 -11.984375 C 9.425781 -21.847656 4.28125 -33.722656 4.28125 -47.609375 C 4.28125 -61.503906 9.425781 -73.410156 19.71875 -83.328125 C 30.007812 -93.253906 42.347656 -98.21875 56.734375 -98.21875 C 71.859375 -98.21875 84.164062 -93.84375 93.65625 -85.09375 C 103.144531 -76.351562 107.890625 -63.863281 107.890625 -47.625 C 107.890625 -45.382812 107.828125 -43.894531 107.703125 -43.15625 Z M 39.4375 -61.390625 L 75.703125 -61.390625 C 74.960938 -66.347656 73.007812 -70.160156 69.84375 -72.828125 C 66.6875 -75.492188 62.628906 -76.828125 57.671875 -76.828125 C 52.210938 -76.828125 47.867188 -75.398438 44.640625 -72.546875 C 41.421875 -69.691406 39.6875 -65.972656 39.4375 -61.390625 Z M 39.4375 -61.390625 "/></g></g></g><g fill="#ffffff" fill-opacity="1"><g transform="translate(112.368738, 167.669964)"><g><path d="M 61.9375 -71.25 C 55.738281 -71.25 50.40625 -68.953125 45.9375 -64.359375 C 41.476562 -59.773438 39.25 -54.257812 39.25 -47.8125 C 39.25 -41.238281 41.476562 -35.65625 45.9375 -31.0625 C 50.40625 -26.476562 55.738281 -24.1875 61.9375 -24.1875 C 64.914062 -24.1875 67.738281 -24.554688 70.40625 -25.296875 C 73.070312 -26.046875 75.023438 -26.789062 76.265625 -27.53125 L 77.9375 -28.640625 L 89.09375 -5.765625 C 88.226562 -5.148438 87.019531 -4.375 85.46875 -3.4375 C 83.925781 -2.507812 80.394531 -1.238281 74.875 0.375 C 69.351562 1.988281 63.429688 2.796875 57.109375 2.796875 C 43.097656 2.796875 30.789062 -2.128906 20.1875 -11.984375 C 9.582031 -21.847656 4.28125 -33.664062 4.28125 -47.4375 C 4.28125 -61.320312 9.582031 -73.253906 20.1875 -83.234375 C 30.789062 -93.222656 43.097656 -98.21875 57.109375 -98.21875 C 63.429688 -98.21875 69.257812 -97.472656 74.59375 -95.984375 C 79.925781 -94.492188 83.707031 -93.003906 85.9375 -91.515625 L 89.09375 -89.28125 L 77.9375 -66.78125 C 73.84375 -69.757812 68.507812 -71.25 61.9375 -71.25 Z M 61.9375 -71.25 "/></g></g></g><g fill="#ffffff" fill-opacity="1"><g transform="translate(203.695518, 167.669964)"><g><path d="M 20.1875 -11.34375 C 9.582031 -20.769531 4.28125 -32.859375 4.28125 -47.609375 C 4.28125 -62.367188 9.796875 -74.492188 20.828125 -83.984375 C 31.867188 -93.472656 45.507812 -98.21875 61.75 -98.21875 C 77.75 -98.21875 91.234375 -93.441406 102.203125 -83.890625 C 113.179688 -74.335938 118.671875 -62.242188 118.671875 -47.609375 C 118.671875 -32.984375 113.304688 -20.925781 102.578125 -11.4375 C 91.859375 -1.945312 78.25 2.796875 61.75 2.796875 C 44.644531 2.796875 30.789062 -1.914062 20.1875 -11.34375 Z M 45.65625 -63.796875 C 41.382812 -59.585938 39.25 -54.195312 39.25 -47.625 C 39.25 -41.050781 41.296875 -35.6875 45.390625 -31.53125 C 49.484375 -27.375 54.878906 -25.296875 61.578125 -25.296875 C 68.023438 -25.296875 73.320312 -27.40625 77.46875 -31.625 C 81.625 -35.84375 83.703125 -41.175781 83.703125 -47.625 C 83.703125 -54.195312 81.5625 -59.585938 77.28125 -63.796875 C 73.007812 -68.015625 67.773438 -70.125 61.578125 -70.125 C 55.242188 -70.125 49.9375 -68.015625 45.65625 -63.796875 Z M 45.65625 -63.796875 "/></g></g></g><g fill="#ffffff" fill-opacity="1"><g transform="translate(326.642538, 167.669964)"><g><path d="M 52.640625 -98.21875 C 58.097656 -98.21875 63.492188 -97.597656 68.828125 -96.359375 C 74.160156 -95.117188 78.128906 -93.878906 80.734375 -92.640625 L 84.640625 -90.78125 L 73.84375 -69.203125 C 66.40625 -73.171875 59.335938 -75.15625 52.640625 -75.15625 C 48.921875 -75.15625 46.285156 -74.75 44.734375 -73.9375 C 43.179688 -73.132812 42.40625 -71.617188 42.40625 -69.390625 C 42.40625 -68.890625 42.46875 -68.390625 42.59375 -67.890625 C 42.71875 -67.398438 42.96875 -66.9375 43.34375 -66.5 C 43.71875 -66.0625 44.054688 -65.6875 44.359375 -65.375 C 44.671875 -65.070312 45.195312 -64.734375 45.9375 -64.359375 C 46.6875 -63.984375 47.273438 -63.703125 47.703125 -63.515625 C 48.140625 -63.335938 48.851562 -63.0625 49.84375 -62.6875 C 50.84375 -62.3125 51.585938 -62.03125 52.078125 -61.84375 C 52.578125 -61.664062 53.414062 -61.390625 54.59375 -61.015625 C 55.769531 -60.640625 56.671875 -60.390625 57.296875 -60.265625 C 61.140625 -59.148438 64.484375 -57.910156 67.328125 -56.546875 C 70.179688 -55.179688 73.191406 -53.320312 76.359375 -50.96875 C 79.523438 -48.613281 81.972656 -45.632812 83.703125 -42.03125 C 85.441406 -38.4375 86.3125 -34.347656 86.3125 -29.765625 C 86.3125 -8.054688 71.242188 2.796875 41.109375 2.796875 C 34.285156 2.796875 27.804688 1.742188 21.671875 -0.359375 C 15.535156 -2.472656 11.101562 -4.585938 8.375 -6.703125 L 4.28125 -10.046875 L 17.671875 -32.546875 C 18.660156 -31.679688 19.960938 -30.660156 21.578125 -29.484375 C 23.191406 -28.304688 26.101562 -26.691406 30.3125 -24.640625 C 34.53125 -22.597656 38.191406 -21.578125 41.296875 -21.578125 C 48.117188 -21.578125 51.53125 -23.867188 51.53125 -28.453125 C 51.53125 -30.566406 50.660156 -32.210938 48.921875 -33.390625 C 47.179688 -34.566406 44.234375 -35.898438 40.078125 -37.390625 C 35.929688 -38.878906 32.679688 -40.242188 30.328125 -41.484375 C 24.367188 -44.578125 19.648438 -48.078125 16.171875 -51.984375 C 12.703125 -55.890625 10.96875 -61.070312 10.96875 -67.53125 C 10.96875 -77.195312 14.71875 -84.726562 22.21875 -90.125 C 29.726562 -95.519531 39.867188 -98.21875 52.640625 -98.21875 Z M 52.640625 -98.21875 "/></g></g></g><g fill="#ffffff" fill-opacity="1"><g transform="translate(418.155298, 167.669964)"><g><path d="M 83.515625 -95.421875 L 121.46875 -95.421875 L 46.5 48.359375 L 8.5625 48.359375 L 41.484375 -14.875 L -3.71875 -95.421875 L 34.234375 -95.421875 L 60.828125 -46.5 Z M 83.515625 -95.421875 "/></g></g></g><g fill="#ffffff" fill-opacity="1"><g transform="translate(535.894282, 167.669964)"><g><path d="M 52.640625 -98.21875 C 58.097656 -98.21875 63.492188 -97.597656 68.828125 -96.359375 C 74.160156 -95.117188 78.128906 -93.878906 80.734375 -92.640625 L 84.640625 -90.78125 L 73.84375 -69.203125 C 66.40625 -73.171875 59.335938 -75.15625 52.640625 -75.15625 C 48.921875 -75.15625 46.285156 -74.75 44.734375 -73.9375 C 43.179688 -73.132812 42.40625 -71.617188 42.40625 -69.390625 C 42.40625 -68.890625 42.46875 -68.390625 42.59375 -67.890625 C 42.71875 -67.398438 42.96875 -66.9375 43.34375 -66.5 C 43.71875 -66.0625 44.054688 -65.6875 44.359375 -65.375 C 44.671875 -65.070312 45.195312 -64.734375 45.9375 -64.359375 C 46.6875 -63.984375 47.273438 -63.703125 47.703125 -63.515625 C 48.140625 -63.335938 48.851562 -63.0625 49.84375 -62.6875 C 50.84375 -62.3125 51.585938 -62.03125 52.078125 -61.84375 C 52.578125 -61.664062 53.414062 -61.390625 54.59375 -61.015625 C 55.769531 -60.640625 56.671875 -60.390625 57.296875 -60.265625 C 61.140625 -59.148438 64.484375 -57.910156 67.328125 -56.546875 C 70.179688 -55.179688 73.191406 -53.320312 76.359375 -50.96875 C 79.523438 -48.613281 81.972656 -45.632812 83.703125 -42.03125 C 85.441406 -38.4375 86.3125 -34.347656 86.3125 -29.765625 C 86.3125 -8.054688 71.242188 2.796875 41.109375 2.796875 C 34.285156 2.796875 27.804688 1.742188 21.671875 -0.359375 C 15.535156 -2.472656 11.101562 -4.585938 8.375 -6.703125 L 4.28125 -10.046875 L 17.671875 -32.546875 C 18.660156 -31.679688 19.960938 -30.660156 21.578125 -29.484375 C 23.191406 -28.304688 26.101562 -26.691406 30.3125 -24.640625 C 34.53125 -22.597656 38.191406 -21.578125 41.296875 -21.578125 C 48.117188 -21.578125 51.53125 -23.867188 51.53125 -28.453125 C 51.53125 -30.566406 50.660156 -32.210938 48.921875 -33.390625 C 47.179688 -34.566406 44.234375 -35.898438 40.078125 -37.390625 C 35.929688 -38.878906 32.679688 -40.242188 30.328125 -41.484375 C 24.367188 -44.578125 19.648438 -48.078125 16.171875 -51.984375 C 12.703125 -55.890625 10.96875 -61.070312 10.96875 -67.53125 C 10.96875 -77.195312 14.71875 -84.726562 22.21875 -90.125 C 29.726562 -95.519531 39.867188 -98.21875 52.640625 -98.21875 Z M 52.640625 -98.21875 "/></g></g></g><g fill="#ffffff" fill-opacity="1"><g transform="translate(627.407043, 167.669964)"><g><path d="M 16.734375 -95.421875 L 16.734375 -130.953125 L 49.671875 -130.953125 L 49.671875 -95.421875 L 69.75 -95.421875 L 69.75 -70.3125 L 49.671875 -70.3125 L 49.671875 -40 C 49.671875 -31.1875 52.148438 -26.78125 57.109375 -26.78125 C 58.347656 -26.78125 59.648438 -27.03125 61.015625 -27.53125 C 62.378906 -28.03125 63.429688 -28.523438 64.171875 -29.015625 L 65.296875 -29.765625 L 73.46875 -3.15625 C 66.40625 0.8125 58.347656 2.796875 49.296875 2.796875 C 43.097656 2.796875 37.765625 1.710938 33.296875 -0.453125 C 28.828125 -2.628906 25.445312 -5.546875 23.15625 -9.203125 C 20.863281 -12.859375 19.21875 -16.703125 18.21875 -20.734375 C 17.226562 -24.765625 16.734375 -29.078125 16.734375 -33.671875 L 16.734375 -70.3125 L 2.96875 -70.3125 L 2.96875 -95.421875 Z M 16.734375 -95.421875 "/></g></g></g><g fill="#ffffff" fill-opacity="1"><g transform="translate(700.8777, 167.669964)"><g><path d="M 107.703125 -43.15625 L 38.5 -43.15625 C 38.5 -36.457031 40.671875 -31.492188 45.015625 -28.265625 C 49.359375 -25.046875 54.070312 -23.4375 59.15625 -23.4375 C 64.488281 -23.4375 68.703125 -24.148438 71.796875 -25.578125 C 74.898438 -27.003906 78.4375 -29.828125 82.40625 -34.046875 L 106.21875 -22.140625 C 96.289062 -5.515625 79.796875 2.796875 56.734375 2.796875 C 42.347656 2.796875 30.007812 -2.128906 19.71875 -11.984375 C 9.425781 -21.847656 4.28125 -33.722656 4.28125 -47.609375 C 4.28125 -61.503906 9.425781 -73.410156 19.71875 -83.328125 C 30.007812 -93.253906 42.347656 -98.21875 56.734375 -98.21875 C 71.859375 -98.21875 84.164062 -93.84375 93.65625 -85.09375 C 103.144531 -76.351562 107.890625 -63.863281 107.890625 -47.625 C 107.890625 -45.382812 107.828125 -43.894531 107.703125 -43.15625 Z M 39.4375 -61.390625 L 75.703125 -61.390625 C 74.960938 -66.347656 73.007812 -70.160156 69.84375 -72.828125 C 66.6875 -75.492188 62.628906 -76.828125 57.671875 -76.828125 C 52.210938 -76.828125 47.867188 -75.398438 44.640625 -72.546875 C 41.421875 -69.691406 39.6875 -65.972656 39.4375 -61.390625 Z M 39.4375 -61.390625 "/></g></g></g><g fill="#ffffff" fill-opacity="1"><g transform="translate(813.036653, 167.669964)"><g><path d="M 11.15625 0 L 11.15625 -95.421875 L 44.078125 -95.421875 L 44.078125 -85.375 L 44.453125 -85.375 C 53.015625 -93.9375 62.128906 -98.21875 71.796875 -98.21875 C 78.742188 -98.21875 85.253906 -96.789062 91.328125 -93.9375 C 97.410156 -91.082031 102 -86.679688 105.09375 -80.734375 C 114.769531 -92.390625 125.3125 -98.21875 136.71875 -98.21875 C 146.882812 -98.21875 155.625 -95.363281 162.9375 -89.65625 C 170.257812 -83.957031 173.921875 -75.03125 173.921875 -62.875 L 173.921875 0 L 141 0 L 141 -53.9375 C 141 -59.03125 139.601562 -63.28125 136.8125 -66.6875 C 134.019531 -70.09375 129.835938 -71.796875 124.265625 -71.796875 C 119.421875 -71.796875 115.726562 -70.335938 113.1875 -67.421875 C 110.644531 -64.515625 109.25 -61.015625 109 -56.921875 L 109 0 L 76.078125 0 L 76.078125 -53.9375 C 76.078125 -59.03125 74.679688 -63.28125 71.890625 -66.6875 C 69.097656 -70.09375 64.914062 -71.796875 59.34375 -71.796875 C 54.257812 -71.796875 50.441406 -70.210938 47.890625 -67.046875 C 45.347656 -63.890625 44.078125 -60.140625 44.078125 -55.796875 L 44.078125 0 Z M 11.15625 0 "/></g></g></g></g></g></svg>